<svg width="20" height="20" viewBox="0 0 20 20" fill="none" xmlns="http://www.w3.org/2000/svg">
<g clip-path="url(#clip0_101_300)">
<path d="M18.4042 3.94409L20 2.41742V2.08325H14.4717L10.5317 11.8899L6.04917 2.08325H0.2525V2.41742L2.11667 4.66159C2.29833 4.82742 2.39333 5.06992 2.36917 5.31409V14.1333C2.42667 14.4508 2.32333 14.7774 2.1 15.0083L0 17.5533V17.8833H5.95417V17.5491L3.85417 15.0083C3.62667 14.7766 3.51917 14.4558 3.565 14.1333V6.50492L8.79167 17.8874H9.39917L13.8933 6.50492V15.5724C13.8933 15.8116 13.8933 15.8608 13.7367 16.0174L12.12 17.5816V17.9166H19.9633V17.5824L18.405 16.0566C18.2683 15.9533 18.1975 15.7799 18.2267 15.6116V4.38909C18.1975 4.21992 18.2675 4.04659 18.4042 3.94409Z" fill="white"/>
</g>
<defs>
<clipPath id="clip0_101_300">
<rect width="20" height="20" fill="white"/>
</clipPath>
</defs>
</svg>
