<svg width="20" height="20" viewBox="0 0 20 20" fill="none" xmlns="http://www.w3.org/2000/svg">
<g clip-path="url(#clip0_101_298)">
<path d="M17.7708 7.75675C17.1391 7.75675 16.5833 8.02258 16.1741 8.43675C14.67 7.38008 12.6416 6.70008 10.3941 6.62758L11.5616 1.28925L15.2791 2.13591C15.2791 3.05925 16.0208 3.81342 16.9308 3.81342C17.8583 3.81342 18.6041 3.03925 18.6041 2.11508C18.6041 1.19091 17.8633 0.416748 16.9316 0.416748C16.2825 0.416748 15.7225 0.814248 15.4433 1.35758L11.3375 0.434248C11.1308 0.378415 10.9283 0.528415 10.8733 0.738415L9.59164 6.62341C7.36164 6.71758 5.35497 7.39675 3.8458 8.45425C3.43664 8.02258 2.85914 7.75675 2.22747 7.75675C-0.115865 7.75675 -0.883365 10.9476 1.26247 12.0384C1.18664 12.3759 1.15247 12.7359 1.15247 13.0951C1.15247 16.6792 5.13164 19.5834 10.0175 19.5834C14.9241 19.5834 18.9033 16.6792 18.9033 13.0951C18.9033 12.7359 18.8658 12.3592 18.7733 12.0209C20.8758 10.9259 20.1016 7.75841 17.7708 7.75675ZM4.66747 12.2651C4.66747 11.3242 5.40914 10.5667 6.3408 10.5667C7.2508 10.5667 7.9933 11.3192 7.9933 12.2651C7.9933 13.1892 7.25164 13.9426 6.3408 13.9426C5.4133 13.9467 4.66747 13.1892 4.66747 12.2651ZM13.7 16.2634C12.1658 17.8201 7.83664 17.8201 6.30164 16.2634C6.13247 16.1134 6.13247 15.8484 6.30164 15.6776C6.44914 15.5276 6.7108 15.5276 6.8583 15.6776C8.02997 16.8967 11.9166 16.9176 13.1391 15.6776C13.2866 15.5276 13.5483 15.5276 13.6958 15.6776C13.8683 15.8492 13.8683 16.1142 13.7 16.2634ZM13.6658 13.9459C12.7558 13.9459 12.0141 13.1934 12.0141 12.2701C12.0141 11.3292 12.7558 10.5717 13.6658 10.5717C14.5933 10.5717 15.3391 11.3242 15.3391 12.2701C15.335 13.1892 14.5933 13.9459 13.6658 13.9459Z" fill="white"/>
</g>
<defs>
<clipPath id="clip0_101_298">
<rect width="20" height="20" fill="white"/>
</clipPath>
</defs>
</svg>
